<svg xmlns="http://www.w3.org/2000/svg" width="1200" height="360" viewBox="0 0 1200 360" role="img" aria-label="DNA Gestão">
  <defs>
    <linearGradient id="dgGradient" x1="0" y1="0" x2="1" y2="1">
      <stop offset="0%" stop-color="#0F5B56"/>
      <stop offset="100%" stop-color="#1AA187"/>
    </linearGradient>
    <linearGradient id="wordGradient" x1="0" y1="0" x2="1" y2="0">
      <stop offset="0%" stop-color="#0B2D33"/>
      <stop offset="100%" stop-color="#0F5B56"/>
    </linearGradient>
    <filter id="softShadow" x="-20%" y="-20%" width="140%" height="140%">
      <feDropShadow dx="0" dy="10" stdDeviation="10" flood-color="#0B2D33" flood-opacity="0.16"/>
    </filter>
  </defs>
  <rect width="1200" height="360" rx="36" fill="#0F5B56"/>

  <g transform="translate(70 70) scale(1.18)">
    <path d="M23 18 H89 C132 18 166 50 166 93 C166 136 132 168 89 168 H23 Z
             M54 49 V137 H89 C113 137 132 118 132 93 C132 68 113 49 89 49 Z"
          fill="#FFFFFF" fill-rule="evenodd"/>
    <path d="M88 76 H166 C173 76 178 81 178 88 V106 H139
             C130 106 123 113 123 122 C123 131 130 138 139 138 H178
             V151 C178 159 172 165 164 165 H96 C63 165 37 139 37 106
             C37 99 38 92 40 86 H79 C75 91 73 98 73 106
             C73 121 84 132 99 132 H137 V113 H100 V96 H178
             V87 C178 81 173 76 167 76 Z"
          fill="#EAF6F3"/>
    <path d="M55 102 C77 80 105 75 134 86" fill="none" stroke="#FFFFFF" stroke-width="14" stroke-linecap="round"/>
  </g>

  <g font-family="Inter, Montserrat, Arial, sans-serif">
    <text x="330" y="168" font-size="86" font-weight="800" letter-spacing="-2" fill="#FFFFFF">DNA</text>
    <text x="535" y="168" font-size="86" font-weight="650" letter-spacing="-3" fill="#EAF6F3">Gestão</text>
    <text x="333" y="230" font-size="24" font-weight="700" letter-spacing="8" fill="#EAF6F3">GESTÃO COMPLETA. RESULTADOS REAIS.</text>
  </g>
</svg>